<svg xmlns="http://www.w3.org/2000/svg" width="512" height="512" viewBox="0 0 512 512" role="img" aria-labelledby="title desc">
  <title id="title">Blopbox BP logo</title>
  <desc id="desc">A dark Blopbox profile logo with white B and purple P letters.</desc>
  <defs>
    <radialGradient id="bgGlow" cx="66%" cy="45%" r="60%">
      <stop offset="0" stop-color="#1d1137"/>
      <stop offset="0.48" stop-color="#080913"/>
      <stop offset="1" stop-color="#020207"/>
    </radialGradient>
    <linearGradient id="whiteMetal" x1="58" x2="256" y1="112" y2="392" gradientUnits="userSpaceOnUse">
      <stop stop-color="#ffffff"/>
      <stop offset="0.42" stop-color="#f6f6f8"/>
      <stop offset="1" stop-color="#c9c9cf"/>
    </linearGradient>
    <linearGradient id="purpleMetal" x1="268" x2="452" y1="146" y2="386" gradientUnits="userSpaceOnUse">
      <stop stop-color="#b43dff"/>
      <stop offset="0.45" stop-color="#8d22ff"/>
      <stop offset="1" stop-color="#6215d9"/>
    </linearGradient>
    <filter id="shadow" x="-40%" y="-40%" width="180%" height="180%">
      <feDropShadow dx="0" dy="16" stdDeviation="18" flood-color="#000" flood-opacity="0.72"/>
      <feDropShadow dx="0" dy="0" stdDeviation="9" flood-color="#8d42ff" flood-opacity="0.36"/>
    </filter>
  </defs>
  <rect width="512" height="512" rx="44" fill="url(#bgGlow)"/>
  <g filter="url(#shadow)">
    <path fill="url(#whiteMetal)" d="M86 142h169c49 0 82 25 76 65-3 24-19 42-45 52 26 11 38 33 34 61-7 49-49 75-113 75H50l36-253Zm70 62-11 55h76c24 0 39-10 42-28 3-17-10-27-34-27h-73Zm-25 124h85c27 0 43-11 46-31 3-18-10-29-37-29h-81l-13 60Z"/>
    <path fill="url(#purpleMetal)" d="M274 176h142c54 0 85 31 78 78-8 55-52 88-116 88h-59l-13 76h-72l26-146h73l-5 31h52c24 0 39-13 43-34 3-20-9-32-33-32H263l11-61Z"/>
  </g>
  <g font-family="Arial, Helvetica, sans-serif" font-size="30" font-weight="800" letter-spacing="18">
    <text x="102" y="442" fill="#f5f5f8">BLOP</text>
    <text x="296" y="442" fill="#9a39ff">BOX</text>
  </g>
</svg>
